<svg xmlns="http://www.w3.org/2000/svg" width="16" height="16" viewBox="0 0 16 16">
  <path d="M11.865 3.803A29.777 29.777 0 0 0 9.058.896L8.034.02 7.018.849a22.956 22.956 0 0 0-2.87 2.747C2.118 5.91 1.13 8.002 1.13 9.994a5.641 5.641 0 0 0 2.116 4.48 7.52 7.52 0 0 0 4.493 1.534c.087.007.174.013.26.013.088 0 .175-.006.332-.019a7.423 7.423 0 0 0 4.422-1.528 5.64 5.64 0 0 0 2.117-4.478c0-2.351-1.715-4.661-3.005-6.193ZM8.97 13.02a1.55 1.55 0 0 1-2.03 0 1.252 1.252 0 0 1-.4-.912 7.82 7.82 0 0 1 .153-1.522 2.333 2.333 0 0 0 2.223-.401 2.02 2.02 0 0 0 .206-.218c.167.7.25 1.417.25 2.137a1.26 1.26 0 0 1-.402.916m2.526-.109c-.315.242-.66.441-1.027.592a2.89 2.89 0 0 0 .4-1.397 9.675 9.675 0 0 0-2.433-6.633s.488 3.04-.634 3.61c-1.121.567-1.967-.974-1.967-.974l-.337 1.09a9.69 9.69 0 0 0-.462 2.906c.005.474.133.938.371 1.347a4.437 4.437 0 0 1-.902-.54 3.625 3.625 0 0 1-1.368-2.917c0-1.483.824-3.143 2.521-5.077a21.852 21.852 0 0 1 2.336-2.272 29.597 29.597 0 0 1 2.338 2.453C11.42 6.391 12.865 8.306 12.865 10a3.666 3.666 0 0 1-1.369 2.911"/>
</svg>