<svg xmlns="http://www.w3.org/2000/svg" width="16" height="16" viewBox="0 0 16 16">
  <path fill-rule="evenodd" d="M5.927 7.057a1.6 1.6 0 1 0 0-3.2 1.6 1.6 0 0 0 0 3.2m2.756.716a3.6 3.6 0 1 0-5.45.073 5.541 5.541 0 0 0-2.025 1.835C.3 11.028.005 12.608 0 13.67l2 .008c.003-.77.23-1.937.867-2.88.6-.891 1.581-1.62 3.27-1.62 1.083 0 1.964.406 2.587 1.13.633.737 1.069 1.884 1.069 3.462h2c0-1.936-.537-3.585-1.553-4.766a5.162 5.162 0 0 0-1.557-1.232M11.2 3.277H16v2h-4.8zm0 3.523H16v2h-4.8v-2m4.8 3.334h-2.4v2H16z"/>
</svg>