<svg xmlns="http://www.w3.org/2000/svg" width="16" height="16" viewBox="0 0 16 16">
  <path fill-rule="evenodd" d="M4.675 2.43c-.777 0-1.392.26-1.914.772C2.257 3.7 2 4.314 2 5.116c0 .4.076.815.233 1.25.147.405.425.903.865 1.5.451.598 1.062 1.296 1.843 2.099.78.802 1.789 1.767 3.008 2.886l.051.045.049-.044c1.225-1.135 2.231-2.087 3.01-2.887l.005-.005c.797-.808 1.4-1.488 1.83-2.083.445-.615.727-1.118.875-1.518.154-.417.231-.83.231-1.243 0-.802-.257-1.417-.761-1.914l-.006-.005c-.514-.515-1.124-.767-1.908-.767a2.72 2.72 0 0 0-1.3.334c-.397.21-.811.565-1.232 1.112L7.962 4.96 7.18 3.84c-.341-.488-.715-.827-1.138-1.059a2.762 2.762 0 0 0-1.367-.35m-3.317-.653C2.257.892 3.378.43 4.675.43c.834 0 1.608.2 2.33.597.37.203.707.45 1.013.736A5.142 5.142 0 0 1 9.087.998 4.72 4.72 0 0 1 11.325.43c1.29 0 2.414.446 3.32 1.35.914.9 1.355 2.042 1.355 3.336a5.56 5.56 0 0 1-.355 1.936c-.236.637-.63 1.306-1.131 1.998-.516.713-1.198 1.474-2.023 2.312-.82.842-1.862 1.826-3.09 2.964l-.007.007L8 15.574l-1.392-1.24-.005-.005a77.981 77.981 0 0 1-3.096-2.97c-.818-.841-1.491-1.606-2.009-2.293l-.007-.009C.986 8.371.59 7.698.353 7.045A5.653 5.653 0 0 1 0 5.116c0-1.295.442-2.438 1.358-3.34Z"/>
</svg>