<svg xmlns="http://www.w3.org/2000/svg" width="16" height="16" viewBox="0 0 16 16">
  <path fill-rule="evenodd" d="m2.52 2.628-1.06 1.06 1.217 1.217A9.19 9.19 0 0 0 0 8.455a9.194 9.194 0 0 0 3.2 3.946c1.43 1.006 3.03 1.51 4.8 1.51a8.258 8.258 0 0 0 3.1-.583l1.674 1.674 1.06-1.06L2.521 2.627Zm6.991 9.111-.863-.863a2.5 2.5 0 0 1-3.063-3.063L4.1 6.329a7.103 7.103 0 0 0-1.868 2.127 7.137 7.137 0 0 0 2.118 2.31C5.44 11.53 6.637 11.91 8 11.91c.527 0 1.03-.057 1.511-.17M7.353 6.046l3.062 3.062a2.502 2.502 0 0 0-3.062-3.062m6.414 2.41a7.102 7.102 0 0 1-1.873 2.13l1.424 1.425A9.19 9.19 0 0 0 16 8.456a9.193 9.193 0 0 0-3.2-3.946C11.37 3.504 9.77 3.001 8 3.001a8.255 8.255 0 0 0-3.107.585L6.48 5.174A6.527 6.527 0 0 1 8 5c1.363 0 2.56.379 3.65 1.145a7.138 7.138 0 0 1 2.117 2.31"/>
</svg>