<svg xmlns="http://www.w3.org/2000/svg" width="16" height="16" viewBox="0 0 16 16">
  <path fill-rule="evenodd" d="M.93.07v8.1h2v-6.1h10.143v10.524a1.293 1.293 0 0 1-1.081 1.33.91.91 0 0 1-.141.006h-.024a1.21 1.21 0 0 1-1.172-1.207l.006-3.208H.93v3.025a3.391 3.391 0 0 0 3.387 3.388h7.554c.107 0 .214-.005.32-.016a3.308 3.308 0 0 0 2.882-3.319V.07H.93Zm3.387 13.86a1.39 1.39 0 0 1-1.387-1.39v-1.026h5.727v1.2c0 .415.08.825.237 1.21l-4.577.004m7.257-10.377H4.442v1.5h7.132v-1.5M4.442 6.536h4.714v1.5H4.442z"/>
</svg>