<svg xmlns="http://www.w3.org/2000/svg" width="16" height="16" viewBox="0 0 16 16">
  <path fill-rule="evenodd" d="M8 11.91c-1.363 0-2.56-.38-3.65-1.146a7.137 7.137 0 0 1-2.117-2.31 7.138 7.138 0 0 1 2.118-2.31C5.44 5.38 6.637 5 8 5s2.56.379 3.65 1.145a7.138 7.138 0 0 1 2.117 2.31 7.138 7.138 0 0 1-2.118 2.31C10.56 11.53 9.363 11.908 8 11.908m-4.8-7.4A9.193 9.193 0 0 0 0 8.454 9.194 9.194 0 0 0 3.2 12.4c1.43 1.006 3.03 1.51 4.8 1.51s3.37-.504 4.8-1.51A9.193 9.193 0 0 0 16 8.455a9.193 9.193 0 0 0-3.2-3.946C11.37 3.503 9.77 3 8 3s-3.37.503-4.8 1.51M9 8.46a1 1 0 1 1-2 0 1 1 0 0 1 2 0m1.5 0a2.5 2.5 0 1 1-5 0 2.5 2.5 0 0 1 5 0"/>
</svg>